<?xml version="1.0" encoding="UTF-8"?>
<svg width="762px" height="441px" viewBox="0 0 762 441" version="1.1" xmlns="http://www.w3.org/2000/svg" xmlns:xlink="http://www.w3.org/1999/xlink">
    <title>Artboard</title>
    <g id="Artboard" stroke="none" stroke-width="1" fill="none" fill-rule="evenodd">
        <g id="Group-4" transform="translate(-0, 0)" fill="#3027D4">
            <path d="M31.784777,317.382958 C7.49977704,312.640958 -4.84422296,294.437958 1.76977704,273.124958 C2.39777704,271.093958 15.784777,243.757958 31.511777,212.374958 C47.237777,180.987958 61.917777,151.694958 64.132777,147.272958 C66.347777,142.854958 68.159777,139.046958 68.159777,138.811958 C68.159777,138.577958 68.718777,137.530958 69.401777,136.487958 L70.647777,134.589958 L73.339777,139.702958 C79.972777,152.280958 90.144777,164.569958 99.659777,171.499958 C105.124777,175.476958 105.761777,170.983958 95.233777,202.683958 C84.046777,236.382958 82.351777,241.937958 83.261777,241.937958 C84.034777,241.937958 88.487777,239.421958 119.534777,221.464958 C148.940777,204.452958 148.038777,206.894958 133.909777,182.706958 L127.569777,171.847958 L122.011777,168.776958 C102.589777,158.034958 88.585777,141.612958 81.276777,120.999958 L79.214777,115.187958 L76.124777,115.171958 C52.358777,115.030958 36.233777,89.261958 46.319777,67.550958 C52.065777,55.187958 68.171777,46.882958 80.749777,49.796958 L83.960777,50.538958 L85.905777,46.675958 C112.800777,-6.73804204 187.839777,-16.297042 229.784777,28.347958 L236.534777,35.530958 L242.159777,34.065958 C283.120777,23.382958 299.296777,85.437958 258.811777,97.944958 L254.534777,99.265958 L253.999777,104.015958 C253.706777,106.628958 253.061777,110.335958 252.569777,112.253958 C250.679777,119.644958 251.479777,119.687958 273.194777,113.339958 C282.319777,110.675958 299.909777,105.636958 312.284777,102.144958 C324.659777,98.651958 337.991777,94.890958 341.909777,93.784958 C345.827777,92.679958 351.397777,91.167958 354.284777,90.425958 C357.171777,89.687958 364.261777,87.862958 370.034777,86.374958 C460.257777,63.124958 522.925777,65.866958 563.429777,94.831958 C584.444777,109.862958 589.171777,130.628958 573.104777,137.343958 C568.112777,139.425958 567.187777,139.003958 559.991777,131.339958 C532.499777,102.042958 500.491777,97.687958 465.694777,118.503958 C462.729777,120.276958 460.245777,121.120958 457.034777,121.437958 C447.495777,122.382958 424.112777,128.374958 407.909777,134.022958 C389.905777,140.300958 332.507777,162.507958 327.757777,165.034958 L325.784777,166.081958 L328.784777,167.331958 C330.437777,168.022958 336.847777,170.706958 343.034777,173.300958 C388.421777,192.327958 382.558777,191.147958 393.659777,183.476958 C479.101777,124.417958 494.632777,116.636958 517.394777,121.483958 C546.144777,127.608958 563.319777,151.503958 592.929777,226.561958 C606.714777,261.503958 609.659777,269.104958 609.659777,269.710958 C609.659777,272.706958 615.370777,276.413958 629.909777,282.851958 C647.526777,290.655958 658.952777,305.280958 653.171777,312.628958 L651.550777,314.687958 L607.448777,314.687958 C573.046777,314.687958 563.187777,314.483958 562.632777,313.749958 C561.956777,312.862958 559.394777,307.206958 544.019777,272.687958 C537.741777,258.585958 523.300777,226.815958 513.081777,204.624958 C510.374777,198.749958 507.843777,193.937958 507.456777,193.937958 C506.183777,193.937958 495.835777,201.327958 466.054777,223.499958 L445.823777,238.561958 L450.679777,239.038958 C453.351777,239.300958 460.796777,239.554958 467.226777,239.601958 C473.655777,239.647958 486.612777,239.913958 496.019777,240.187958 L513.120777,240.683958 L515.718777,246.374958 C517.147777,249.503958 519.464777,254.542958 520.862777,257.569958 C522.265777,260.597958 523.409777,263.187958 523.409777,263.327958 C523.409777,263.468958 524.386777,265.718958 525.577777,268.323958 C538.597777,296.780958 545.171777,312.644958 544.354777,313.628958 C543.253777,314.960958 321.811777,315.226958 305.456777,313.913958 C267.878777,310.901958 233.788777,298.784958 197.909777,275.679958 C183.726777,266.546958 186.886777,266.077958 142.183777,283.917958 C52.061777,319.882958 49.140777,320.769958 31.784777,317.382958 Z M181.687777,162.058958 C203.081777,156.483958 215.065777,135.464958 208.257777,115.452958 C206.339777,109.815958 206.554777,109.194958 211.554777,105.976958 C234.226777,91.386958 232.378777,60.753958 208.104777,48.769958 C197.382777,43.476958 182.370777,44.515958 172.296777,51.249958 C164.679777,56.339958 165.710777,55.991958 162.726777,54.491958 C137.718777,41.944958 110.772777,54.561958 107.538777,80.323958 C105.944777,93.050958 115.038777,107.362958 128.038777,112.581958 C130.788777,113.683958 133.538777,114.839958 134.155777,115.151958 C135.050777,115.604958 135.284777,117.565958 135.323777,125.015958 C135.472777,150.858958 157.405777,168.382958 181.687777,162.058958 Z M138.675777,94.374958 C131.964777,91.003958 130.448777,81.440958 135.843777,76.499958 C140.843777,71.917958 147.683777,72.140958 152.339777,77.038958 C160.925777,86.058958 149.917777,100.022958 138.675777,94.374958 Z M185.159777,89.499958 C174.437777,82.179958 182.261777,66.030958 194.886777,69.429958 C204.214777,71.940958 206.554777,84.198958 198.718777,89.479958 C195.194777,91.858958 188.628777,91.866958 185.159777,89.499958 Z M669.948777,313.608958 C669.702777,312.964958 669.702777,311.905958 669.952777,311.257958 C670.698777,309.315958 668.440777,300.202958 666.046777,295.476958 C660.101777,283.726958 653.116777,277.515958 637.409777,270.007958 C631.839777,267.347958 626.464777,264.749958 625.464777,264.241958 C623.272777,263.124958 615.354777,244.335958 616.538777,243.061958 C617.628777,241.890958 654.530777,242.589958 661.651777,243.921958 C668.847777,245.265958 677.046777,248.233958 686.081777,252.772958 C696.089777,257.800958 699.292777,258.437958 714.628777,258.448958 C728.878777,258.460958 734.319777,259.300958 741.179777,262.546958 C763.038777,272.886958 764.503777,302.542958 743.628777,312.190958 L739.034777,314.311958 L704.718777,314.546958 C674.144777,314.757958 670.351777,314.655958 669.948777,313.608958 Z M737.534777,245.210958 C734.968777,244.620958 726.022777,243.968958 716.694777,243.690958 C698.894777,243.159958 698.550777,243.061958 701.663777,239.397958 C708.308777,231.581958 711.034777,227.534958 714.866777,219.811958 C731.483777,186.323958 726.073777,150.093958 700.729777,125.159958 C684.831777,109.515958 670.565777,104.519958 642.616777,104.808958 C619.796777,105.046958 612.616777,101.261958 612.429777,88.901958 C612.218777,74.866958 625.565777,67.175958 650.159777,67.1599314 C726.651777,67.108958 779.491777,140.554958 757.284777,216.061958 C754.194777,226.565958 744.397777,246.694958 742.546777,246.339958 C742.265777,246.284958 740.011777,245.776958 737.534777,245.210958 Z" id="Fill-1"></path>
            <path d="M31.784777,317.382958 C7.49977704,312.640958 -4.84422296,294.437958 1.76977704,273.124958 C2.39777704,271.093958 15.784777,243.757958 31.511777,212.374958 C47.237777,180.987958 61.917777,151.694958 64.132777,147.272958 C66.347777,142.854958 68.159777,139.046958 68.159777,138.811958 C68.159777,138.577958 68.718777,137.530958 69.401777,136.487958 L70.647777,134.589958 L73.339777,139.702958 C79.972777,152.280958 90.144777,164.569958 99.659777,171.499958 C105.124777,175.476958 105.761777,170.983958 95.233777,202.683958 C84.046777,236.382958 82.351777,241.937958 83.261777,241.937958 C84.034777,241.937958 88.487777,239.421958 119.534777,221.464958 C148.940777,204.452958 148.038777,206.894958 133.909777,182.706958 L127.569777,171.847958 L122.011777,168.776958 C102.589777,158.034958 88.585777,141.612958 81.276777,120.999958 L79.214777,115.187958 L76.124777,115.171958 C52.358777,115.030958 36.233777,89.261958 46.319777,67.550958 C52.065777,55.187958 68.171777,46.882958 80.749777,49.796958 L83.960777,50.538958 L85.905777,46.675958 C112.800777,-6.73804204 187.839777,-16.297042 229.784777,28.347958 L236.534777,35.530958 L242.159777,34.065958 C283.120777,23.382958 299.296777,85.437958 258.811777,97.944958 L254.534777,99.265958 L253.999777,104.015958 C253.706777,106.628958 253.061777,110.335958 252.569777,112.253958 C250.679777,119.644958 251.479777,119.687958 273.194777,113.339958 C282.319777,110.675958 299.909777,105.636958 312.284777,102.144958 C324.659777,98.651958 337.991777,94.890958 341.909777,93.784958 C345.827777,92.679958 351.397777,91.167958 354.284777,90.425958 C357.171777,89.687958 364.261777,87.862958 370.034777,86.374958 C460.257777,63.124958 522.925777,65.866958 563.429777,94.831958 C584.444777,109.862958 589.171777,130.628958 573.104777,137.343958 C568.112777,139.425958 567.187777,139.003958 559.991777,131.339958 C532.499777,102.042958 500.491777,97.687958 465.694777,118.503958 C462.729777,120.276958 460.245777,121.120958 457.034777,121.437958 C447.495777,122.382958 424.112777,128.374958 407.909777,134.022958 C389.905777,140.300958 332.507777,162.507958 327.757777,165.034958 L325.784777,166.081958 L328.784777,167.331958 C330.437777,168.022958 336.847777,170.706958 343.034777,173.300958 C388.421777,192.327958 382.558777,191.147958 393.659777,183.476958 C479.101777,124.417958 494.632777,116.636958 517.394777,121.483958 C546.144777,127.608958 563.319777,151.503958 592.929777,226.561958 C606.714777,261.503958 609.659777,269.104958 609.659777,269.710958 C609.659777,272.706958 615.370777,276.413958 629.909777,282.851958 C647.526777,290.655958 658.952777,305.280958 653.171777,312.628958 L651.550777,314.687958 L607.448777,314.687958 C573.046777,314.687958 563.187777,314.483958 562.632777,313.749958 C561.956777,312.862958 559.394777,307.206958 544.019777,272.687958 C537.741777,258.585958 523.300777,226.815958 513.081777,204.624958 C510.374777,198.749958 507.843777,193.937958 507.456777,193.937958 C506.183777,193.937958 495.835777,201.327958 466.054777,223.499958 L445.823777,238.561958 L450.679777,239.038958 C453.351777,239.300958 460.796777,239.554958 467.226777,239.601958 C473.655777,239.647958 486.612777,239.913958 496.019777,240.187958 L513.120777,240.683958 L515.718777,246.374958 C517.147777,249.503958 519.464777,254.542958 520.862777,257.569958 C522.265777,260.597958 523.409777,263.187958 523.409777,263.327958 C523.409777,263.468958 524.386777,265.718958 525.577777,268.323958 C538.597777,296.780958 545.171777,312.644958 544.354777,313.628958 C543.253777,314.960958 321.811777,315.226958 305.456777,313.913958 C267.878777,310.901958 233.788777,298.784958 197.909777,275.679958 C183.726777,266.546958 186.886777,266.077958 142.183777,283.917958 C52.061777,319.882958 49.140777,320.769958 31.784777,317.382958 Z M181.687777,162.058958 C203.081777,156.483958 215.065777,135.464958 208.257777,115.452958 C206.339777,109.815958 206.554777,109.194958 211.554777,105.976958 C234.226777,91.386958 232.378777,60.753958 208.104777,48.769958 C197.382777,43.476958 182.370777,44.515958 172.296777,51.249958 C164.679777,56.339958 165.710777,55.991958 162.726777,54.491958 C137.718777,41.944958 110.772777,54.561958 107.538777,80.323958 C105.944777,93.050958 115.038777,107.362958 128.038777,112.581958 C130.788777,113.683958 133.538777,114.839958 134.155777,115.151958 C135.050777,115.604958 135.284777,117.565958 135.323777,125.015958 C135.472777,150.858958 157.405777,168.382958 181.687777,162.058958 Z M138.675777,94.374958 C131.964777,91.003958 130.448777,81.440958 135.843777,76.499958 C140.843777,71.917958 147.683777,72.140958 152.339777,77.038958 C160.925777,86.058958 149.917777,100.022958 138.675777,94.374958 Z M185.159777,89.499958 C174.437777,82.179958 182.261777,66.030958 194.886777,69.429958 C204.214777,71.940958 206.554777,84.198958 198.718777,89.479958 C195.194777,91.858958 188.628777,91.866958 185.159777,89.499958 Z M669.948777,313.608958 C669.702777,312.964958 669.702777,311.905958 669.952777,311.257958 C670.698777,309.315958 668.440777,300.202958 666.046777,295.476958 C660.101777,283.726958 653.116777,277.515958 637.409777,270.007958 C631.839777,267.347958 626.464777,264.749958 625.464777,264.241958 C623.272777,263.124958 615.354777,244.335958 616.538777,243.061958 C617.628777,241.890958 654.530777,242.589958 661.651777,243.921958 C668.847777,245.265958 677.046777,248.233958 686.081777,252.772958 C696.089777,257.800958 699.292777,258.437958 714.628777,258.448958 C728.878777,258.460958 734.319777,259.300958 741.179777,262.546958 C763.038777,272.886958 764.503777,302.542958 743.628777,312.190958 L739.034777,314.311958 L704.718777,314.546958 C674.144777,314.757958 670.351777,314.655958 669.948777,313.608958 Z M737.534777,245.210958 C734.968777,244.620958 726.022777,243.968958 716.694777,243.690958 C698.894777,243.159958 698.550777,243.061958 701.663777,239.397958 C708.308777,231.581958 711.034777,227.534958 714.866777,219.811958 C743.565777,161.976958 707.233777,104.140958 642.616777,104.808958 C619.796777,105.046958 612.616777,101.261958 612.429777,88.901958 C612.218777,74.866958 625.565777,67.175958 650.159777,67.1599314 C726.651777,67.108958 779.491777,140.554958 757.284777,216.061958 C754.194777,226.565958 744.397777,246.694958 742.546777,246.339958 C742.265777,246.284958 740.011777,245.776958 737.534777,245.210958 Z" id="Fill-2"></path>
            <path d="M161.292777,107.483958 C161.292777,107.483958 157.612777,107.706958 157.390777,109.710958 C157.167777,111.718958 156.722777,113.948958 158.171777,114.729958 C159.620777,115.507958 161.183777,115.952958 162.296777,116.733958 C163.409777,117.515958 167.202777,119.968958 168.206777,120.749958 C169.206777,121.526958 169.655777,122.308958 170.991777,122.198958 C172.327777,122.085958 173.890777,120.858958 175.452777,118.405958 C177.011777,115.952958 180.913777,113.835958 181.581777,113.167958 C182.249777,112.499958 183.030777,111.050958 182.808777,109.710958 C182.585777,108.374958 181.917777,105.585958 180.245777,105.476958 C178.573777,105.362958 163.300777,107.147958 161.292777,107.483958 Z" id="Fill-3"></path>
        </g>
        <text id="PRIMATE" font-family="NIKEARegular, NIKEA" font-size="107" font-weight="normal" letter-spacing="15.9660801" fill="#3027D4">
            <tspan x="-7.35728027" y="434">PRIMATE</tspan>
        </text>
    </g>
</svg>